#!OML:ASF H:\Terrain\Patient Classification 1\Takeo\Monday\TakeoMonday.ASF
:FULLY-SPECIFIED
:DEGREES
517
root 5.35072 16.8982 2.42543 -164.235 82.0425 -163.324
lowerback 11.6706 -2.79911 -1.41341
upperback 7.63451 -3.37375 -4.52634
thorax 1.26455 -1.44446 -3.56188
lowerneck -0.556405 -14.7229 -11.7483
upperneck 4.1736 -20.0002 9.9526
head 3.49904 -9.956 3.79131
rclavicle 1.27222e-014 1.90833e-014
rhumerus -16.7256 -30.0848 -28.3095
rradius 33.7249
rwrist -0.738471
rhand -42.8829 39.8319
rfingers 7.12502
rthumb -15.7456 10.4524
lclavicle 1.27222e-014 1.90833e-014
lhumerus -25.9678 2.52709 73.3024
lradius 91.4781
lwrist 27.5587
lhand -33.2526 24.5995
lfingers 7.12502
lthumb -6.45806 54.4811
rfemur -18.9209 -6.04953 19.3562
rtibia 46.4455
rfoot -22.7002 -8.44645
rtoes -2.58905
lfemur -13.1748 15.1973 -5.43689
ltibia 42.5082
lfoot -18.1316 15.6226
ltoes -12.167
518
root 5.37205 16.9016 2.45787 -165.462 82.3041 -164.68
lowerback 11.4373 -2.88624 -1.70038
upperback 7.63684 -3.50443 -4.67703
thorax 1.39567 -1.51579 -3.55501
lowerneck -1.25624 -14.6399 -11.4298
upperneck 4.65979 -19.8069 9.32119
head 3.64063 -9.84575 3.52049
rclavicle -7.95139e-015 -1.74931e-014
rhumerus -17.8586 -30.5172 -26.1072
rradius 34.2804
rwrist -1.84471
rhand -42.6622 37.7908
rfingers 7.12502
rthumb -15.533 8.39471
lclavicle -7.95139e-015 -1.74931e-014
lhumerus -26.4029 2.89174 72.5781
lradius 91.7227
lwrist 27.3281
lhand -32.9608 24.785
lfingers 7.12502
lthumb -6.17637 54.6749
rfemur -19.0098 -5.76533 19.1756
rtibia 46.4526
rfoot -22.9177 -8.04729
rtoes -1.26365
lfemur -13.0544 15.3052 -5.59335
ltibia 42.2599
lfoot -17.9816 15.7101
ltoes -11.2983
519
root 5.39214 16.8834 2.4838 -160.828 82.3419 -159.886
lowerback 11.5078 -3.12849 -1.18065
upperback 7.57544 -3.80305 -4.50745
thorax 1.25271 -1.66025 -3.63152
lowerneck -1.50092 -14.1047 -13.0979
upperneck 5.40242 -19.1605 10.6298
head 4.13114 -9.50805 4.11914
rclavicle -5.88403e-014 1.27222e-014
rhumerus -18.6744 -30.1174 -24.1012
rradius 34.6225
rwrist -2.78995
rhand -44.0326 40.6251
rfingers 7.12502
rthumb -16.8526 11.3364
lclavicle -5.88403e-014 1.27222e-014
lhumerus -27.3172 3.65596 71.966
lradius 91.9636
lwrist 27.0914
lhand -32.5144 24.706
lfingers 7.12502
lthumb -5.74541 54.6081
rfemur -18.9332 -6.12349 20.1547
rtibia 46.3307
rfoot -22.2255 -9.57928
rtoes -9.78619
lfemur -12.7133 15.5949 -4.68421
ltibia 42.0737
lfoot -17.7007 15.6116
ltoes -11.0383
520
root 5.41097 16.9021 2.51024 -160.059 82.4651 -159.001
lowerback 11.644 -3.27461 -0.973219
upperback 7.49035 -3.99066 -4.66544
thorax 1.0541 -1.74729 -3.88291
lowerneck -1.26599 -14.0265 -11.182
upperneck 4.7555 -18.9395 8.70719
head 3.49994 -9.4269 3.39705
rclavicle -4.69132e-014 -2.38542e-014
rhumerus -20.0535 -29.7887 -22.0653
rradius 34.9702
rwrist -3.57297
rhand -45.6246 43.2641
rfingers 7.12502
rthumb -18.3846 14.1129
lclavicle -4.69132e-014 -2.38542e-014
lhumerus -28.0677 3.82407 71.0964
lradius 92.0953
lwrist 27.2082
lhand -31.9334 24.4628
lfingers 7.12502
lthumb -5.18443 54.3794
rfemur -18.6606 -5.7204 20.1727
rtibia 46.3513
rfoot -23.2719 -8.35539
rtoes -4.42431
lfemur -12.2885 15.6619 -4.45469
ltibia 41.7045
lfoot -17.6497 15.6627
ltoes -11.188
521
root 5.42985 16.908 2.53882 -165.247 82.7824 -164.161
lowerback 11.6354 -3.26134 -1.63073
upperback 7.52404 -4.01293 -5.00258
thorax 1.11772 -1.76415 -3.86741
lowerneck -0.940014 -13.8404 -10.7153
upperneck 4.08116 -18.6858 8.53293
head 3.15963 -9.30989 3.36346
rclavicle 3.57812e-014 3.49861e-014
rhumerus -21.4874 -29.827 -19.8365
rradius 35.2512
rwrist -4.43959
rhand -46.327 42.5832
rfingers 7.12502
rthumb -19.0602 13.4971
lclavicle 3.57812e-014 3.49861e-014
lhumerus -28.3278 3.74812 70.4634
lradius 92.1813
lwrist 27.2134
lhand -32.0924 24.5438
lfingers 7.12502
lthumb -5.33792 54.4566
rfemur -18.635 -6.0326 19.5998
rtibia 46.2893
rfoot -22.7125 -9.71386
rtoes -11.5843
lfemur -11.9141 15.3283 -5.20795
ltibia 41.3366
lfoot -17.7873 16.0471
ltoes -11.3556
522
root 5.4488 16.9268 2.56455 -166.726 82.9399 -165.544
lowerback 11.6338 -3.43274 -1.79076
upperback 7.58421 -4.24471 -5.11811
thorax 1.1732 -1.87997 -3.87616
lowerneck -1.09407 -13.5405 -11.7503
upperneck 4.40668 -18.3395 9.63698
head 3.44997 -9.12405 3.81391
rclavicle 2.38542e-014 2.38542e-014
rhumerus -22.2196 -29.8983 -17.9056
rradius 35.5246
rwrist -5.52349
rhand -46.9406 41.4451
rfingers 7.12502
rthumb -19.6502 12.4183
lclavicle 2.38542e-014 2.38542e-014
lhumerus -28.6642 4.40317 69.9921
lradius 92.1783
lwrist 27.0491
lhand -32.461 24.6168
lfingers 7.12502
lthumb -5.69388 54.5203
rfemur -18.3474 -5.51825 19.2915
rtibia 46.3668
rfoot -23.4897 -8.15798
rtoes -3.90268
lfemur -11.4034 14.811 -5.3607
ltibia 40.8094
lfoot -17.7513 16.4047
ltoes -11.0217
523
root 5.46359 16.9312 2.58529 -165.621 83.0463 -164.336
lowerback 11.7156 -3.6517 -1.46788
upperback 7.56188 -4.51358 -5.25316
thorax 1.05449 -2.00336 -4.163
lowerneck -1.19249 -13.3105 -12.5193
upperneck 4.88905 -18.0999 10.5483
head 3.74283 -8.99127 4.17406
rclavicle 1.19271e-014 1.43125e-014
rhumerus -22.9949 -30.1214 -16.0916
rradius 35.616
rwrist -6.42526
rhand -47.593 41.3444
rfingers 7.12502
rthumb -20.2773 12.3828
lclavicle 1.19271e-014 1.43125e-014
lhumerus -29.0225 5.09484 69.3312
lradius 92.0403
lwrist 27.0671
lhand -32.7442 24.5571
lfingers 7.12502
lthumb -5.96723 54.4531
rfemur -18.1995 -5.40596 19.5401
rtibia 46.3319
rfoot -23.5038 -8.00071
rtoes -1.84123
lfemur -10.9686 14.528 -5.12148
ltibia 40.3532
lfoot -17.601 16.5321
ltoes -10.8385
